<?xml version="1.0" encoding="UTF-8"?>
<svg id="_レイヤー_2" data-name="レイヤー 2" xmlns="http://www.w3.org/2000/svg" viewBox="0 0 201.85 201.85">
  <defs>
    <style>
      .cls-1 {
        fill: #00a0e6;
      }

      .cls-2 {
        fill: #fff;
      }
    </style>
  </defs>
  <g id="_レイヤー_1-2" data-name="レイヤー 1">
    <rect class="cls-2" width="201.85" height="201.85"/>
    <g>
      <path class="cls-1" d="M8.38,87.77h161.04c5.07,0,10.62,18.8,0,18.8h-75.23c-6.18,0-18.36,10.13-21.95,15.66-23.81,36.6,16.75,80.97,51.4,53.73,12.47-9.81,15.4-23.53,14.03-38.84h-9.38c2.53,22.15-15.14,38.57-37,31.09-23.94-8.2-20.62-43.98.68-47.39s68.66,5.11,84.19-2.79c11.01-5.6,13.02-17.67,10.83-29.04-.86-4.45-11.91-15.31-15.23-15.31h-43.49c14.06-18.46,13.09-42.3-8.66-53.62C83.35,1.16,47.54,40.62,74.21,73.67H10.73C26.22,30.47,65.32.78,112.35,6.17c81.69,9.36,111.32,115.54,45.32,166.21C92.34,222.55,1.01,167.54,8.38,87.77Z"/>
      <ellipse class="cls-1" cx="102.46" cy="49.03" rx="26.45" ry="26.44"/>
    </g>
  </g>
</svg>